<svg xmlns="http://www.w3.org/2000/svg" viewBox="0 0 237.8 159.72"><defs><style>.cls-1,.cls-13,.cls-14,.cls-15,.cls-6,.cls-8,.cls-9{fill:none;}.cls-1,.cls-6{stroke:#1d1d1b;}.cls-1,.cls-14,.cls-15{stroke-linecap:round;stroke-linejoin:round;}.cls-1{fill:#d3e7f9;stroke-width:4px;}.cls-2{fill:#adadad;}.cls-3{fill:#a4384b;}.cls-4{fill:#8c5c31;}.cls-5{fill:#f2d3bb;}.cls-13,.cls-6,.cls-8,.cls-9{stroke-miterlimit:10;}.cls-6{stroke-width:2px;}.cls-7{fill:#f0b5a8;}.cls-8{stroke:#010101;stroke-width:0.5px;}.cls-13,.cls-9{stroke:#070404;}.cls-9{stroke-width:0.75px;}.cls-10{fill:#010101;}.cls-11{fill:#fff;}.cls-12{fill:#724430;}.cls-13,.cls-14,.cls-15{stroke-width:0.25px;}.cls-14{stroke:#000;}.cls-15{stroke:#c7c6c6;}.cls-16{fill:#572a11;}</style></defs><g id="Layer_1" data-name="Layer 1"><path class="cls-1 navIcon" d="M241.9,126.69c0-16.85-13.05-30.8-30.07-33.26C208.6,78,194.27,66.38,177.06,66.38a37,37,0,0,0-15.61,3.43c-7.71-13.5-22.78-22.67-40.1-22.67A46.6,46.6,0,0,0,87.69,61.23,36.73,36.73,0,0,0,70,56.76C50.47,56.76,34.6,71.82,34.6,90.4c0,.36,0,.71,0,1.07-15.79,8.1-26.52,24-26.52,42.18,0,26.46,22.6,47.92,50.49,47.92,1.54,0,3.07-.08,4.58-.21A59.89,59.89,0,0,0,149,187.71a47.53,47.53,0,0,0,18,3.5c20.74,0,38.23-13.14,43.75-31.13C228.26,158.1,241.9,143.91,241.9,126.69Z" transform="translate(-6.1 -45.14)"/></g><g id="Layer_2" data-name="Layer 2"><path class="cls-2" d="M154,144.18l-3.1,30.11v.3L95.37,174h0L92.3,143.94h4.19l26.68.11,26.52.1Zm-28.31,15.06a2.51,2.51,0,1,0-5,0,2.51,2.51,0,1,0,5,0Z" transform="translate(-6.1 -45.14)"/><path class="cls-3" d="M149.69,144.06v.1l-26.52-.1v-1.29c3,0,5.34-4.3,5.34-9.61v0Z" transform="translate(-6.1 -45.14)"/><path class="cls-4" d="M149.69,106.85v37.21l-21.17-10.94-1.1-.56,0-.12c6.55-1.85,11.24-7.13,14.32-13.29,1.06-2.14,2.46-4,3.29-6.18.43-1.09,1.23-2.17,1.25-3.46a3,3,0,0,0,3-2.66Z" transform="translate(-6.1 -45.14)"/><path class="cls-4" d="M99.35,103.39h0c-.89,0-1.8,0-2.72,0h-.13v-3.29c0-18.07,11.89-32.69,26.6-32.69s26.6,14.62,26.6,32.69v6.7h-.45a2.9,2.9,0,0,0-2.65-2.62l0-.3c-9.08-1-16.07-7.26-16.07-14.83C130.55,96.64,116.82,102.81,99.35,103.39Z" transform="translate(-6.1 -45.14)"/><path class="cls-5" d="M146.59,104.23a2.9,2.9,0,0,1,2.65,2.62,3,3,0,0,1-3,2.66c0,1.29-.82,2.37-1.25,3.46-.83,2.16-2.23,4-3.29,6.18-3.08,6.16-7.77,11.44-14.32,13.29a18.89,18.89,0,0,1-5.26.72,14.5,14.5,0,0,1-4.14-.55c-4.36-1.2-7.27-4.38-10-8.48a41.13,41.13,0,0,1-5.26-10.07c-.49-1.53-2.36-3.75-2.36-5.45-1.82,0-3.3-1.19-3.3-2.67a2.8,2.8,0,0,1,2.31-2.55h0c17.47-.58,31.2-6.75,31.2-14.29,0,7.57,7,13.82,16.07,14.83Z" transform="translate(-6.1 -45.14)"/><path class="cls-5" d="M128.52,133.12v0c0,5.31-2.39,9.61-5.34,9.61s-5.32-4.3-5.32-9.61l.14-.55a14.5,14.5,0,0,0,4.14.55,18.89,18.89,0,0,0,5.26-.72l0,.12Z" transform="translate(-6.1 -45.14)"/><path d="M123.17,156.54a2.7,2.7,0,0,1,0,5.38,2.7,2.7,0,0,1,0-5.38Z" transform="translate(-6.1 -45.14)"/><path class="cls-3" d="M123.17,142.77v1.29L96.49,144l21.36-10.79C117.85,138.47,120.24,142.77,123.17,142.77Z" transform="translate(-6.1 -45.14)"/><path class="cls-4" d="M118,132.61l-.14.55L96.49,144V103.44h.13c.92,0,1.83,0,2.72,0A2.8,2.8,0,0,0,97,105.94c0,1.48,1.48,2.67,3.3,2.67,0,1.7,1.87,3.92,2.36,5.45A41.13,41.13,0,0,0,108,124.13C110.72,128.23,113.63,131.41,118,132.61Z" transform="translate(-6.1 -45.14)"/><path class="cls-6" d="M96.49,100.15c0-18.07,11.89-32.69,26.6-32.69" transform="translate(-6.1 -45.14)"/><path class="cls-6" d="M149.69,100.15c0-18.07-11.89-32.69-26.6-32.69" transform="translate(-6.1 -45.14)"/><path class="cls-6" d="M99.34,103.39c-.89,0-1.8,0-2.72,0" transform="translate(-6.1 -45.14)"/><path class="cls-6" d="M130.55,89.1c0,7.54-13.73,13.71-31.2,14.29" transform="translate(-6.1 -45.14)"/><path class="cls-6" d="M130.55,89.1c0,7.57,7,13.82,16.07,14.83a24.81,24.81,0,0,0,2.62.14" transform="translate(-6.1 -45.14)"/><polyline class="cls-6" points="143.59 55.02 143.59 61.71 143.59 98.92"/><polyline class="cls-6" points="90.39 53.53 90.39 55.02 90.39 58.31 90.39 98.81"/><path class="cls-6" d="M145.93,104.18a3.6,3.6,0,0,1,.66,0,2.9,2.9,0,0,1,2.65,2.62,3,3,0,0,1-3,2.66c0,1.29-.82,2.37-1.25,3.46-.83,2.16-2.23,4-3.29,6.18-3.08,6.16-7.77,11.44-14.32,13.29a18.89,18.89,0,0,1-5.26.72" transform="translate(-6.1 -45.14)"/><path class="cls-6" d="M128.51,133.16c0,5.31-2.39,9.61-5.34,9.61s-5.32-4.3-5.32-9.61" transform="translate(-6.1 -45.14)"/><polyline class="cls-6" points="121.32 87.42 122.42 87.99 143.59 98.92"/><line class="cls-6" x1="111.75" y1="88.03" x2="90.39" y2="98.82"/><polyline class="cls-6" points="71.64 128.67 89.28 128.87 144.79 129.46 161.55 129.64"/><polyline class="cls-6" points="89.28 128.85 86.2 98.8 90.39 98.81 117.07 98.92 143.59 99.03 147.9 99.04 144.79 129.15"/><path class="cls-6" d="M125.68,159.24a2.51,2.51,0,1,1-2.51-2.7A2.59,2.59,0,0,1,125.68,159.24Z" transform="translate(-6.1 -45.14)"/><path class="cls-6" d="M122.13,133.16a14.5,14.5,0,0,1-4.14-.55c-4.36-1.2-7.27-4.38-10-8.48a41.13,41.13,0,0,1-5.26-10.07c-.49-1.53-2.36-3.75-2.36-5.45-1.82,0-3.3-1.19-3.3-2.67a2.8,2.8,0,0,1,2.31-2.55h0a3.93,3.93,0,0,1,1-.12" transform="translate(-6.1 -45.14)"/><path class="cls-7" d="M124.19,122.06a10.41,10.41,0,0,0,3.93.79,1.08,1.08,0,0,1-.11.14h0a14.91,14.91,0,0,1-4.35.69c-2.24.09-4.62-.36-4.5-.79v-.07a12.56,12.56,0,0,0,3.57-.75c.19-.06.59.28.8.28S124,122,124.19,122.06Z" transform="translate(-6.1 -45.14)"/><path class="cls-7" d="M128,123c-.49.62-2.38,2.77-4.48,2.77-2.46,0-4.61-2.92-4.61-2.92l.24,0v.07c-.12.43,2.26.88,4.5.79A14.91,14.91,0,0,0,128,123Z" transform="translate(-6.1 -45.14)"/><path class="cls-8" d="M128,123c-.49.62-2.38,2.77-4.48,2.77-2.46,0-4.61-2.92-4.61-2.92l.24,0a12.56,12.56,0,0,0,3.57-.75c.19-.06.59.28.8.28s.5-.38.68-.3a10.41,10.41,0,0,0,3.93.79,1.08,1.08,0,0,1-.11.14" transform="translate(-6.1 -45.14)"/><path class="cls-8" d="M119.14,122.9c-.12.43,2.26.88,4.5.79A14.91,14.91,0,0,0,128,123h0" transform="translate(-6.1 -45.14)"/><path class="cls-9" d="M115.25,104.86" transform="translate(-6.1 -45.14)"/><path class="cls-10" d="M115.54,107.26a.89.89,0,0,0,0,1.77.89.89,0,0,0,0-1.77Z" transform="translate(-6.1 -45.14)"/><path class="cls-9" d="M115.53,106.19a5.64,5.64,0,0,0-4.23,2,5.57,5.57,0,0,0,8.47,0A5.64,5.64,0,0,0,115.53,106.19Z" transform="translate(-6.1 -45.14)"/><ellipse class="cls-9" cx="109.44" cy="63.01" rx="1.55" ry="1.73"/><path class="cls-9" d="M114.74,108.15a.84.84,0,0,0,.8.88.89.89,0,0,0,0-1.77A.84.84,0,0,0,114.74,108.15Z" transform="translate(-6.1 -45.14)"/><path class="cls-11" d="M114,108.15a1.69,1.69,0,0,1,1.57-1.8v-.16a5.64,5.64,0,0,0-4.23,2,5.6,5.6,0,0,0,4.07,1.94v-.16A1.73,1.73,0,0,1,114,108.15Z" transform="translate(-6.1 -45.14)"/><path class="cls-12" d="M115.54,106.35a1.69,1.69,0,0,0-1.57,1.8,1.73,1.73,0,0,0,1.41,1.78h.16a1.81,1.81,0,0,0,0-3.59Zm-.61,1.8a.64.64,0,0,1,.61-.68.63.63,0,0,1,.59.68.62.62,0,0,1-.59.66A.63.63,0,0,1,114.93,108.15Zm1.1-.68a.05.05,0,1,1,.1,0s0,.06,0,.06S116,107.51,116,107.47Z" transform="translate(-6.1 -45.14)"/><path class="cls-11" d="M115.38,109.93v.16a5.59,5.59,0,0,0,4.4-1.94,5.64,5.64,0,0,0-4.24-2v.16a1.81,1.81,0,0,1,0,3.59Z" transform="translate(-6.1 -45.14)"/><path d="M115.54,107.47a.64.64,0,0,0-.61.68.63.63,0,0,0,.61.66.62.62,0,0,0,.59-.66A.63.63,0,0,0,115.54,107.47Z" transform="translate(-6.1 -45.14)"/><path class="cls-13" d="M115.53,106.19a5.64,5.64,0,0,0-4.23,2,5.59,5.59,0,0,0,8.47,0A5.64,5.64,0,0,0,115.53,106.19Z" transform="translate(-6.1 -45.14)"/><path class="cls-13" d="M115.54,106.35a1.69,1.69,0,0,0-1.57,1.8,1.73,1.73,0,0,0,1.41,1.78h.16a1.81,1.81,0,0,0,0-3.59Z" transform="translate(-6.1 -45.14)"/><path class="cls-14" d="M114.93,108.15a.63.63,0,0,0,.61.66.62.62,0,0,0,.59-.66.63.63,0,0,0-.59-.68A.64.64,0,0,0,114.93,108.15Z" transform="translate(-6.1 -45.14)"/><path class="cls-15" d="M116,107.47s0,.06,0,.06,0,0,0-.06a.05.05,0,1,0-.1,0Z" transform="translate(-6.1 -45.14)"/><path class="cls-16" d="M119.72,106.84a9.27,9.27,0,0,0-4.5-1.8,5.34,5.34,0,0,0-2.44.33,3.85,3.85,0,0,0-1.93,1.62,4.12,4.12,0,0,1,1.7-2.07,6.12,6.12,0,0,1,2.65-.88,10.86,10.86,0,0,1,5.53,1.07Z" transform="translate(-6.1 -45.14)"/><path class="cls-9" d="M132.07,104.94" transform="translate(-6.1 -45.14)"/><path class="cls-10" d="M131.79,107.35a.83.83,0,0,1,.78.88.84.84,0,0,1-.78.89.85.85,0,0,1-.8-.89A.84.84,0,0,1,131.79,107.35Z" transform="translate(-6.1 -45.14)"/><path class="cls-9" d="M131.79,106.27a5.67,5.67,0,0,1,4.23,2,5.56,5.56,0,0,1-8.47,0A5.67,5.67,0,0,1,131.79,106.27Z" transform="translate(-6.1 -45.14)"/><path class="cls-9" d="M131.79,106.5a1.74,1.74,0,1,1-1.56,1.73A1.65,1.65,0,0,1,131.79,106.5Z" transform="translate(-6.1 -45.14)"/><path class="cls-9" d="M132.57,108.23a.84.84,0,0,1-.78.89.85.85,0,0,1-.8-.89.84.84,0,0,1,.8-.88A.83.83,0,0,1,132.57,108.23Z" transform="translate(-6.1 -45.14)"/><path class="cls-11" d="M133.34,108.23a1.67,1.67,0,0,0-1.55-1.79v-.17a5.67,5.67,0,0,1,4.23,2,5.62,5.62,0,0,1-4.07,2V110A1.73,1.73,0,0,0,133.34,108.23Z" transform="translate(-6.1 -45.14)"/><path class="cls-12" d="M131.79,106.44a1.67,1.67,0,0,1,1.55,1.79,1.73,1.73,0,0,1-1.4,1.79h-.15a1.81,1.81,0,0,1,0-3.59Zm.65,1.12s0-.07-.06-.07a.07.07,0,0,0,0,.07.06.06,0,0,0,0,.06A.05.05,0,0,0,132.44,107.56Zm-.06.67a.63.63,0,0,0-.59-.67.67.67,0,0,0,0,1.34A.63.63,0,0,0,132.38,108.23Z" transform="translate(-6.1 -45.14)"/><path class="cls-11" d="M131.94,110v.16a5.64,5.64,0,0,1-4.4-2,5.67,5.67,0,0,1,4.24-2v.17a1.81,1.81,0,0,0,0,3.59Z" transform="translate(-6.1 -45.14)"/><path d="M131.79,107.56a.68.68,0,0,1,0,1.34.67.67,0,0,1,0-1.34Z" transform="translate(-6.1 -45.14)"/><path class="cls-13" d="M131.79,106.27a5.67,5.67,0,0,1,4.23,2,5.57,5.57,0,0,1-8.47,0A5.67,5.67,0,0,1,131.79,106.27Z" transform="translate(-6.1 -45.14)"/><path class="cls-13" d="M131.79,106.44a1.67,1.67,0,0,1,1.55,1.79,1.73,1.73,0,0,1-1.4,1.79h-.15a1.81,1.81,0,0,1,0-3.59Z" transform="translate(-6.1 -45.14)"/><path class="cls-14" d="M132.38,108.23a.63.63,0,0,1-.59.67.67.67,0,0,1,0-1.34A.63.63,0,0,1,132.38,108.23Z" transform="translate(-6.1 -45.14)"/><path class="cls-15" d="M132.44,107.56a.05.05,0,0,1-.06.06.06.06,0,0,1,0-.06.07.07,0,0,1,0-.07S132.44,107.52,132.44,107.56Z" transform="translate(-6.1 -45.14)"/><path class="cls-16" d="M126.59,105.2a10.74,10.74,0,0,1,5.53-1.07,6,6,0,0,1,2.65.88,4.09,4.09,0,0,1,1.7,2.07,3.87,3.87,0,0,0-1.93-1.63,5.36,5.36,0,0,0-2.44-.32,9.27,9.27,0,0,0-4.5,1.8Z" transform="translate(-6.1 -45.14)"/><path d="M123.05,111.79a12.86,12.86,0,0,1-.24,2.15,8.37,8.37,0,0,1-.81,1.84,1.44,1.44,0,0,0-.08,1.53.83.83,0,0,0,1.29.18c.2-.16-.09-.44-.29-.28a.43.43,0,0,1-.68-.14.8.8,0,0,1-.06-.71,14.06,14.06,0,0,1,.7-1.4,9,9,0,0,0,.57-3.17c0-.25-.39-.25-.4,0Z" transform="translate(-6.1 -45.14)"/><path d="M124.07,111.74a9.05,9.05,0,0,0,.27,3.2c.17.45.44.87.58,1.33a1,1,0,0,1,0,.71c-.15.29-.37.44-.64.21s-.48.11-.28.28a.73.73,0,0,0,1.17-.13,1.53,1.53,0,0,0,0-1.6,6.38,6.38,0,0,1-.65-1.9,21,21,0,0,1,0-2.1c0-.25-.41-.25-.4,0Z" transform="translate(-6.1 -45.14)"/><path d="M122.75,117a.29.29,0,0,1,.18,0,.55.55,0,0,1,.19.18c.12.19.22.44.45.51a.39.39,0,0,0,.33,0,.88.88,0,0,0,.2-.3.42.42,0,0,1,.14-.18l0,0s.06,0,0,0l.09,0a.2.2,0,1,0,.11-.39.57.57,0,0,0-.6.16,1,1,0,0,0-.19.29s0,.09,0,.1h0s0,0,0,0a.9.9,0,0,1-.17-.26,1.18,1.18,0,0,0-.22-.28.74.74,0,0,0-.65-.18.22.22,0,0,0-.14.25.21.21,0,0,0,.25.14Z" transform="translate(-6.1 -45.14)"/></g></svg>