<svg id="Layer_1" data-name="Layer 1" xmlns="http://www.w3.org/2000/svg" viewBox="0 0 238.66 157.3"><defs><style>.cls-1,.cls-2,.cls-3{fill:none;stroke:#1d1d1b;stroke-miterlimit:10;}.cls-1{fill:#d0c7e2;stroke-width:4px;}.cls-2{stroke-width:3px;}.cls-3{stroke-width:2px;}.cls-4{fill:#1d1d1b;}</style></defs><path class="cls-1 navIcon" d="M240.59,114.57c0-23.87-18.2-43.22-40.65-43.22a38.78,38.78,0,0,0-6.41.54c-6.88-15.47-21.69-26.19-38.86-26.19a41.69,41.69,0,0,0-31.39,14.52C113.73,49.71,99.24,43,83,43c-26.38,0-48.17,17.71-51.6,40.67C16.56,89.3,5.93,104.37,5.93,122.09s10.67,32.84,25.56,38.43c3.21,20.31,19.82,35.79,39.83,35.79a38.76,38.76,0,0,0,24.91-9.15,56.91,56.91,0,0,0,19.83,3.54,55.61,55.61,0,0,0,31.44-9.54,41.11,41.11,0,0,0,26.25,9.54c20.71,0,38-15.59,42.05-36.33C230.37,147.8,240.59,132.46,240.59,114.57Z" transform="translate(-3.93 -41.01)"/><rect class="cls-2" x="57.68" y="38.47" width="120.56" height="80.37"/><rect class="cls-2" x="72.66" y="46.38" width="92.09" height="62.35" rx="11.17"/><rect class="cls-3" x="91.91" y="54.84" width="52.84" height="10.05"/><line class="cls-3" x1="91.91" y1="75.67" x2="144.75" y2="76.05"/><line class="cls-3" x1="85.59" y1="83.99" x2="151.82" y2="83.99"/><ellipse class="cls-3" cx="149.77" cy="97.35" rx="6.77" ry="6.94"/><polyline class="cls-3" points="143.01 97.35 143.01 116.14 149.77 110.95 156.54 116.14 156.54 97.35"/><path class="cls-4" d="M86.37,144.51A19.32,19.32,0,0,0,92,137.08H90.07a14.12,14.12,0,0,0,4.41,6c1,.77,2.32,1.62,3.35.44a4.8,4.8,0,0,0,.73-1.88l.61-2.17H97.24a4.16,4.16,0,0,0,4,3.07c1.67,0,3.62-1.16,3.25-3l-1.23,1.23a3.83,3.83,0,0,1,1.59,1.11,5.82,5.82,0,0,0,1.81,1.27,3,3,0,0,0,3.84-1c.15-.24.33-1,.58-1,.43-.15,1.27.72,1.62.92a8.06,8.06,0,0,0,4.86,1,1,1,0,0,0,1-1,1,1,0,0,0-1-1,6.17,6.17,0,0,1-4.4-1,3.46,3.46,0,0,0-2-.85,2.18,2.18,0,0,0-1.82,1c-.25.36-.35,1-.69,1.25s-1,.06-1.37-.12a7.23,7.23,0,0,1-1.51-1.25,4.91,4.91,0,0,0-2-1.15,1,1,0,0,0-1.23,1.23s-.34.25-.42.29a2,2,0,0,1-1.21.19,2.11,2.11,0,0,1-1.71-1.57,1,1,0,0,0-1.93,0l-.45,1.6-.19.68c-.06.2-.31.72-.26.91l0,.14c.26-.06.34-.12.22-.17a3.8,3.8,0,0,0-.49-.32c-.38-.3-.74-.62-1.09-1A11.68,11.68,0,0,1,92,136.55a1,1,0,0,0-1.93,0A17.38,17.38,0,0,1,85,143.09c-1,.82.43,2.23,1.41,1.42Z" transform="translate(-3.93 -41.01)"/></svg>