<svg id="Layer_1" data-name="Layer 1" xmlns="http://www.w3.org/2000/svg" viewBox="0 0 486.88 275.91"><defs><style>.cls-1{fill:#cee0de;stroke:#1d1d1b;stroke-miterlimit:10;stroke-width:8px;}.cls-2{font-size:101.89px;fill:#1d1d1b;font-family:ChalkboardSE-Regular, Chalkboard SE;}</style></defs><path class="cls-1 navIcon" d="M450.58,186.56c.05-1,.09-2.08.09-3.12,0-43.7-40.65-79.13-90.79-79.13a100.55,100.55,0,0,0-46.25,11,85,85,0,0,0-42.52-11,85.84,85.84,0,0,0-38.58,8.92,128.21,128.21,0,0,0-24.74-2.4c-4.15,0-8.26.2-12.3.59a100.46,100.46,0,0,0-47.33-11.6c-47.33,0-86.18,31.56-90.39,71.85-28.14,13.45-47.21,39.49-47.21,69.42,0,40.73,35.3,74.25,80.69,78.63a65.26,65.26,0,0,0,106.32,24.22c3.37.27,6.78.42,10.22.42a127.43,127.43,0,0,0,31.49-3.94c16.65,16.72,41.19,27.31,68.58,27.31,32.86,0,61.64-15.22,77.58-38a104.44,104.44,0,0,0,13.21.85c50.14,0,90.79-35.43,90.79-79.13C489.44,224.58,474.07,200.86,450.58,186.56Z" transform="translate(-6.56 -95.82)"/><text class="cls-2" transform="translate(158.31 156.39) scale(1.11 1)">&lt;</text><text class="cls-2" transform="translate(215.07 170.32) scale(1.11 1)">/</text><text class="cls-2" transform="translate(287.3 156.39) scale(1.11 1)">&gt;</text></svg>