<svg id="Layer_1" data-name="Layer 1" xmlns="http://www.w3.org/2000/svg" viewBox="0 0 239.45 146.83"><defs><style>.cls-1{fill:#fbd8d8;stroke:#1d1d1b;stroke-miterlimit:10;stroke-width:4px;}.cls-2{font-size:50px;fill:#1d1d1b;font-family:MyriadPro-Regular, Myriad Pro;}</style></defs><path class="cls-1 navIcon" d="M216.57,81.76a48.22,48.22,0,0,0-79.15-26.17,31.69,31.69,0,0,0-22.23-9.41c-11.36,0-21.43,6.35-27.71,16.14a31,31,0,0,0-18.27-6.06c-14.39,0-26.71,10.19-31.88,24.66-16.95,2.51-30,19.24-30,39.52,0,16.62,8.8,30.86,21.31,36.84,6.71,16.93,24.32,29,45,29a49.84,49.84,0,0,0,33.76-12.86A31.5,31.5,0,0,0,128.61,182c12,0,22.53-7.07,28.71-17.79,4.88,9,13.5,15,23.34,15,11.24,0,20.9-7.78,25.19-18.93.8.06,1.59.1,2.4.1,19,0,34.47-17.84,34.47-39.85C242.72,101.75,231.59,86.07,216.57,81.76Z" transform="translate(-5.28 -41.47)"/><path class="cls-1" d="M77.32,127V98.26a14.2,14.2,0,0,1,14.2-14.2h71.73a14.2,14.2,0,0,1,14.2,14.2V127a14.21,14.21,0,0,1-14.2,14.21" transform="translate(-5.28 -41.47)"/><path class="cls-1" d="M163.25,141.24H99.94L80.06,158.57a1.66,1.66,0,0,1-2.74-1.25V127" transform="translate(-5.28 -41.47)"/><text class="cls-2" transform="translate(93.92 73.41)">. . .</text></svg>